<svg width="24" height="24" viewBox="0 0 24 24" fill="none" xmlns="http://www.w3.org/2000/svg">
<defs>
<linearGradient id="paint0_linear_262_190" x1="22.2185" y1="12.0001" x2="1.80176" y2="12.0001" gradientUnits="userSpaceOnUse">
<stop stop-color="#9669D1"/>
<stop offset="1" stop-color="#7A67F3"/>
</linearGradient>
</defs>
<path fill-rule="evenodd" clip-rule="evenodd" d="M6.60125 5.06498C6.65146 4.92397 6.68845 4.77682 6.71027 4.62408C6.80328 3.97299 6.61714 3.32582 6.249 2.81927C5.78504 2.17022 5.04321 1.80005 4.25696 1.80005C3.75333 1.80005 3.23953 1.93746 2.81499 2.26766L2.81116 2.27079C2.31517 2.6766 1.94251 3.22687 1.84719 3.87982C1.70856 4.53725 1.8983 5.187 2.26493 5.69147C2.72888 6.34052 3.47072 6.71069 4.25696 6.71069C4.29552 6.71069 4.33385 6.70979 4.37192 6.70804L6.48244 10.2256H2.85271C2.64524 10.2256 2.46895 10.3563 2.37086 10.4544C2.24315 10.5821 2.1711 10.7802 2.23268 10.9845C2.7639 13.8932 3.42893 16.6946 4.87481 18.7687C6.3357 20.8643 8.58048 22.2001 12.2144 22.2001C15.707 22.2001 17.9588 20.7625 19.4579 18.6255C20.9448 16.506 21.6847 13.7083 22.196 10.985C22.2555 10.7882 22.1909 10.5969 22.0719 10.4689C21.9396 10.283 21.7451 10.2256 21.5761 10.2256H11.1677C11.1451 10.1886 11.1173 10.1527 11.0838 10.1185L6.60125 5.06498ZM5.42446 6.42888C5.42444 6.42888 5.42448 6.42887 5.42446 6.42888ZM6.5165 5.27139C6.51651 5.27138 6.51649 5.2714 6.5165 5.27139ZM5.80261 5.92156C5.80281 5.92137 5.80241 5.92176 5.80261 5.92156ZM5.32147 6.25664C5.32149 6.25663 5.32145 6.25664 5.32147 6.25664ZM5.6002 6.33296C5.64431 6.30683 5.68746 6.27966 5.7296 6.25157L5.73774 6.24614L5.74531 6.23995C5.78176 6.21012 5.81755 6.17952 5.85261 6.14815L9.5079 10.2256H7.92775L5.6002 6.33296ZM5.15427 5.08284C5.32738 4.8933 5.43566 4.68704 5.46244 4.44605C5.49986 4.10922 5.42567 3.81863 5.24315 3.56311L5.2394 3.55786C5.02398 3.23473 4.6634 3.05111 4.25696 3.05111C4.00324 3.05111 3.75057 3.12186 3.53308 3.26219C3.30261 3.49578 3.12428 3.75429 3.05032 4.07548C3.01566 4.40773 3.09021 4.69484 3.27077 4.94763L3.27443 4.95294C3.48985 5.27607 3.85052 5.45962 4.25696 5.45962C4.43054 5.45962 4.60363 5.42651 4.7653 5.36066L5.15427 5.08284ZM12.2144 20.949C9.3424 20.949 7.50315 20.1344 6.22115 18.5447C4.95684 16.977 4.21324 14.6315 3.60504 11.4766H20.8222C20.1457 14.8471 19.1784 17.1973 17.8157 18.712C16.4307 20.2516 14.6174 20.949 12.2144 20.949ZM3.36334 11.2766C3.37596 11.3436 3.38864 11.4103 3.40137 11.4766C4.28337 16.0696 5.46056 19.0409 8.17141 20.3604C5.42134 19.0219 4.2497 15.9835 3.36334 11.2766L21.0654 11.2766C21.0654 11.2766 21.0654 11.2766 21.0654 11.2766L3.36334 11.2766Z" fill="#828282"/>
</svg>
