<svg width="33" height="55" viewBox="0 0 33 55" fill="none" xmlns="http://www.w3.org/2000/svg">
<path d="M1.25869 18.27C4.69392 5.44951 18.0717 -2.16574 31.0494 1.31165C31.805 1.5141 32.2298 2.23969 32.0298 2.98608C31.8298 3.73248 31.0991 4.14844 30.3436 3.94599C18.8324 0.861595 6.97236 7.61293 3.92535 18.9845C0.878346 30.3561 7.77381 42.133 19.2849 45.2174C19.6405 45.3126 19.996 45.4079 20.3634 45.4593L16.115 38.2034C15.7228 37.5336 15.9463 36.6994 16.6091 36.3593C17.2836 35.9754 18.128 36.2016 18.4757 36.8595L24.2601 46.7387C24.6522 47.4085 24.4287 48.2427 23.766 48.5827L13.817 54.2462C13.4797 54.4382 13.0889 54.4746 12.7778 54.3912C12.4667 54.3079 12.1464 54.0809 11.9503 53.746C11.5582 53.0762 11.7817 52.242 12.4444 51.902L19.2457 48.0303L18.5791 47.8517C5.60127 44.3743 -2.17655 31.0905 1.25869 18.27Z" fill="white"/>
</svg>
