<svg width="20" height="20" viewBox="0 0 20 20" fill="none" xmlns="http://www.w3.org/2000/svg">
<defs>
<linearGradient id="paint0_linear_233_1899" x1="18.5417" y1="10.0002" x2="1.45837" y2="10.0002" gradientUnits="userSpaceOnUse">
<stop stop-color="#9669D1"/>
<stop offset="1" stop-color="#7A67F3"/>
</linearGradient>
<linearGradient id="paint1_linear_233_1899" x1="17.2916" y1="9.5835" x2="4.79163" y2="9.5835" gradientUnits="userSpaceOnUse">
<stop stop-color="#9669D1"/>
<stop offset="1" stop-color="#7A67F3"/>
</linearGradient>
</defs>
<path d="M2.70837 2.0835C2.70837 1.73832 2.42855 1.4585 2.08337 1.4585C1.7382 1.4585 1.45837 1.73832 1.45837 2.0835V12.9626C1.45836 14.1022 1.45834 15.0208 1.55547 15.7433C1.65632 16.4934 1.87207 17.1249 2.37367 17.6266C2.87527 18.1282 3.50682 18.3439 4.25692 18.4447C4.97939 18.5418 5.89799 18.5418 7.03765 18.5418H17.9167C18.2619 18.5418 18.5417 18.262 18.5417 17.9168C18.5417 17.5717 18.2619 17.2918 17.9167 17.2918H7.08337C5.88719 17.2918 5.05293 17.2905 4.42347 17.2059C3.812 17.1237 3.48818 16.9733 3.25755 16.7427C3.02692 16.512 2.87654 16.1882 2.79433 15.5767C2.7097 14.9472 2.70837 14.113 2.70837 12.9168V2.0835Z" fill="url(#paint0_linear_233_1899)"/>
<path d="M17.1085 7.52544C17.3526 7.28136 17.3526 6.88563 17.1085 6.64155C16.8645 6.39748 16.4688 6.39748 16.2247 6.64155L12.3089 10.5574C12.243 10.6232 12.1894 10.6768 12.142 10.7225C12.1009 10.6713 12.0542 10.6114 11.9971 10.538L10.2513 8.29334C10.1273 8.13379 9.99688 7.96598 9.86905 7.84248C9.72196 7.70029 9.49813 7.53596 9.18071 7.52456C8.8633 7.51317 8.6283 7.66103 8.47138 7.7923C8.33505 7.90632 8.19291 8.06434 8.05778 8.21459L4.95207 11.6654C4.72116 11.922 4.74196 12.3172 4.99853 12.5481C5.2551 12.779 5.65028 12.7582 5.88119 12.5016L8.96521 9.07491C9.03071 9.00208 9.0843 8.94258 9.13163 8.89183C9.17513 8.94583 9.22438 9.00908 9.28446 9.08641L11.0296 11.3302C11.1475 11.4819 11.2727 11.643 11.3958 11.7624C11.5384 11.9007 11.7529 12.0592 12.0577 12.0781C12.3625 12.0971 12.595 11.9665 12.7536 11.8469C12.8905 11.7437 13.0347 11.5994 13.1705 11.4634L17.1085 7.52544Z" fill="url(#paint1_linear_233_1899)"/>
</svg>
