<svg width="20" height="20" viewBox="0 0 20 20" fill="none" xmlns="http://www.w3.org/2000/svg">
<defs>
<linearGradient id="paint0_linear_233_1925" x1="18.0416" y1="10.0002" x2="1.95831" y2="10.0002" gradientUnits="userSpaceOnUse">
<stop stop-color="#9669D1"/>
<stop offset="1" stop-color="#7A67F3"/>
</linearGradient>
<linearGradient id="paint1_linear_233_1925" x1="18.0416" y1="5.00016" x2="1.95831" y2="5.00016" gradientUnits="userSpaceOnUse">
<stop stop-color="#9669D1"/>
<stop offset="1" stop-color="#7A67F3"/>
</linearGradient>
<linearGradient id="paint2_linear_233_1925" x1="18.0416" y1="15.0002" x2="1.95831" y2="15.0002" gradientUnits="userSpaceOnUse">
<stop stop-color="#9669D1"/>
<stop offset="1" stop-color="#7A67F3"/>
</linearGradient>
</defs>
<path fill-rule="evenodd" clip-rule="evenodd" d="M1.95831 10.0002C1.95831 9.70101 2.20083 9.4585 2.49998 9.4585H17.5C17.7991 9.4585 18.0416 9.70101 18.0416 10.0002C18.0416 10.2993 17.7991 10.5418 17.5 10.5418H2.49998C2.20083 10.5418 1.95831 10.2993 1.95831 10.0002Z" fill="url(#paint0_linear_233_1925)"/>
<path fill-rule="evenodd" clip-rule="evenodd" d="M1.95831 5.00016C1.95831 4.70101 2.20083 4.4585 2.49998 4.4585H17.5C17.7991 4.4585 18.0416 4.70101 18.0416 5.00016C18.0416 5.29932 17.7991 5.54183 17.5 5.54183H2.49998C2.20083 5.54183 1.95831 5.29932 1.95831 5.00016Z" fill="url(#paint1_linear_233_1925)"/>
<path fill-rule="evenodd" clip-rule="evenodd" d="M1.95831 15.0002C1.95831 14.701 2.20083 14.4585 2.49998 14.4585H17.5C17.7991 14.4585 18.0416 14.701 18.0416 15.0002C18.0416 15.2993 17.7991 15.5418 17.5 15.5418H2.49998C2.20083 15.5418 1.95831 15.2993 1.95831 15.0002Z" fill="url(#paint2_linear_233_1925)"/>
</svg>
