<svg width="16" height="16" viewBox="0 0 16 16" fill="none" xmlns="http://www.w3.org/2000/svg">
<path fill-rule="evenodd" clip-rule="evenodd" d="M7.62209 2.73243C7.85306 2.84344 7.99996 3.07703 7.99996 3.3333V12.6666C7.99996 12.9229 7.85306 13.1565 7.62209 13.2675C7.39111 13.3785 7.11694 13.3473 6.91683 13.1872L3.76611 10.6666H1.33329C0.965103 10.6666 0.666626 10.3682 0.666626 9.99997V5.99997C0.666626 5.63178 0.965103 5.3333 1.33329 5.3333H3.76611L6.91683 2.81272C7.11694 2.65263 7.39111 2.62142 7.62209 2.73243ZM6.66663 4.72038L4.41642 6.52055C4.29821 6.61511 4.15134 6.66663 3.99996 6.66663H1.99996V9.3333H3.99996C4.15134 9.3333 4.29821 9.38482 4.41642 9.47939L6.66663 11.2795V4.72038Z" fill="#828282"/>
</svg>
